<?xml version="1.0" standalone="no"?>
<!DOCTYPE svg PUBLIC "-//W3C//DTD SVG 20010904//EN"
 "http://www.w3.org/TR/2001/REC-SVG-20010904/DTD/svg10.dtd">
<svg version="1.0" xmlns="http://www.w3.org/2000/svg"
 width="291.000000pt" height="173.000000pt" viewBox="0 0 291.000000 173.000000"
 preserveAspectRatio="xMidYMid meet">

<g transform="translate(0.000000,173.000000) scale(0.100000,-0.100000)"
fill="#000000" stroke="none">
<path d="M785 1568 c-11 -6 -23 -16 -27 -22 -4 -6 -8 -312 -8 -681 0 -369 4
-675 8 -681 21 -32 52 -34 514 -33 l463 1 -135 34 -135 34 -303 0 -303 0 -24
25 -25 24 0 596 0 596 25 24 24 25 303 1 303 0 130 34 130 33 -460 1 c-326 0
-466 -3 -480 -11z"/>
<path d="M1792 1568 c3 -9 26 -13 75 -13 71 0 103 -13 103 -41 0 -10 13 -14
44 -14 81 0 76 44 76 -634 0 -680 5 -636 -78 -636 -32 0 -42 -4 -47 -20 -10
-30 -34 -38 -103 -31 -56 6 -65 5 -73 -12 -10 -18 -3 -18 166 -15 172 3 177 4
196 27 18 22 19 49 19 686 0 637 -1 664 -19 686 -19 23 -24 24 -191 27 -139 3
-171 1 -168 -10z"/>
<path d="M1610 1284 c-17 -9 -20 -14 -9 -14 9 0 22 7 29 15 15 18 13 18 -20
-1z"/>
<path d="M1672 1284 c9 -9 21 -15 27 -13 6 2 -2 10 -17 17 -25 11 -25 11 -10
-4z"/>
<path d="M1585 1250 c10 -11 20 -20 23 -20 3 0 -3 9 -13 20 -10 11 -20 20 -23
20 -3 0 3 -9 13 -20z"/>
<path d="M1704 1248 l-19 -23 23 19 c21 18 27 26 19 26 -2 0 -12 -10 -23 -22z"/>
<path d="M1601 1203 c-1 -13 2 -23 7 -23 12 1 58 29 47 29 -5 1 -17 -4 -25 -9
-11 -7 -17 -5 -22 8 -5 14 -7 13 -7 -5z"/>
<path d="M1691 1194 c0 -11 3 -14 6 -6 3 7 2 16 -1 19 -3 4 -6 -2 -5 -13z"/>
<path d="M1635 581 c-4 -13 -20 -27 -36 -33 -28 -9 -29 -12 -15 -27 9 -10 16
-32 16 -49 0 -30 1 -31 25 -20 19 8 31 8 50 0 24 -11 25 -10 25 20 0 17 7 39
16 49 14 16 14 18 -8 24 -13 4 -33 19 -44 33 l-21 26 -8 -23z"/>
</g>
</svg>
