<?xml version="1.0" standalone="no"?>
<!DOCTYPE svg PUBLIC "-//W3C//DTD SVG 20010904//EN"
 "http://www.w3.org/TR/2001/REC-SVG-20010904/DTD/svg10.dtd">
<svg version="1.0" xmlns="http://www.w3.org/2000/svg"
 width="617.000000pt" height="324.000000pt" viewBox="0 0 617.000000 324.000000"
 preserveAspectRatio="xMidYMid meet">

<g transform="translate(0.000000,324.000000) scale(0.100000,-0.100000)"
fill="#000000" stroke="none">
<path d="M2273 2225 c-88 -19 -156 -59 -244 -143 -128 -122 -169 -233 -158
-428 8 -130 36 -215 104 -309 96 -134 214 -202 371 -212 166 -11 301 44 420
169 157 167 196 403 103 636 -27 70 -41 90 -108 155 -42 41 -95 84 -118 96
-96 49 -245 63 -370 36z m262 -20 c303 -79 456 -457 307 -763 -37 -77 -147
-191 -223 -232 -114 -61 -242 -76 -364 -45 -159 41 -304 195 -350 371 -21 79
-20 233 1 304 52 176 195 318 365 364 72 19 191 20 264 1z"/>
<path d="M2330 1791 c-71 -37 -101 -115 -81 -207 24 -106 104 -154 196 -119
64 24 89 63 93 147 3 54 0 76 -18 114 -39 79 -115 105 -190 65z m128 -17 c34
-24 66 -100 65 -155 -3 -170 -209 -201 -253 -38 -14 52 -8 110 15 145 37 57
125 82 173 48z"/>
<path d="M4423 2225 c-91 -20 -158 -60 -244 -145 -89 -88 -145 -190 -157 -285
l-8 -60 -12 76 c-16 108 -41 156 -115 231 -132 132 -322 195 -557 185 -69 -3
-154 -13 -190 -23 -72 -18 -210 -78 -210 -91 -1 -36 155 -917 165 -932 21 -36
335 -39 465 -6 112 29 227 92 301 165 73 73 113 144 132 238 15 74 27 90 27
35 0 -111 88 -276 199 -373 144 -127 396 -145 570 -42 88 52 181 154 226 246
69 144 71 326 4 494 -27 70 -41 90 -108 155 -42 41 -95 84 -118 96 -96 49
-245 63 -370 36z m262 -20 c303 -79 456 -457 307 -763 -37 -77 -147 -191 -223
-232 -114 -61 -242 -76 -364 -45 -159 41 -304 195 -350 371 -21 79 -20 233 1
304 52 176 195 318 365 364 72 19 191 20 264 1z m-1115 -382 c75 -30 104 -86
76 -142 -18 -35 -121 -89 -176 -93 l-35 -3 -8 118 c-5 66 -6 126 -3 134 5 12
17 13 59 8 28 -4 68 -14 87 -22z"/>
<path d="M4480 1791 c-71 -37 -101 -115 -81 -207 24 -106 104 -154 196 -119
64 24 89 63 93 147 3 54 0 76 -18 114 -39 79 -115 105 -190 65z m128 -17 c34
-24 66 -100 65 -155 -3 -170 -209 -201 -253 -38 -14 52 -8 110 15 145 37 57
125 82 173 48z"/>
<path d="M1004 2197 c-2 -7 -3 -116 -2 -242 l3 -230 132 3 132 3 1 -307 c0
-169 3 -311 6 -316 3 -5 25 -7 48 -3 92 14 301 57 308 64 4 3 -10 146 -32 316
-21 171 -36 313 -32 316 4 4 67 17 140 30 73 12 140 27 148 33 11 9 14 40 15
145 0 73 -4 138 -8 142 -7 7 -747 59 -836 59 -10 0 -20 -6 -23 -13z"/>
</g>
</svg>
